<?xml version="1.0" standalone="no"?>
<!DOCTYPE svg PUBLIC "-//W3C//DTD SVG 20010904//EN"
 "http://www.w3.org/TR/2001/REC-SVG-20010904/DTD/svg10.dtd">
<svg version="1.0" xmlns="http://www.w3.org/2000/svg"
 width="900.000000pt" height="900.000000pt" viewBox="0 0 900.000000 900.000000"
 preserveAspectRatio="xMidYMid meet">

<g transform="translate(0.000000,900.000000) scale(0.100000,-0.100000)"
fill="#A0A0A0" stroke="none">
<path d="M2407 7578 c-42 -167 -139 -548 -216 -848 -77 -300 -288 -1128 -470
-1840 -181 -712 -393 -1542 -470 -1845 -78 -302 -141 -557 -141 -566 0 -10 16
-19 48 -27 50 -12 295 -76 427 -112 44 -12 148 -39 230 -61 424 -111 515 -134
685 -179 102 -26 289 -75 415 -108 127 -33 302 -79 390 -102 88 -23 210 -55
270 -71 61 -16 198 -52 305 -80 189 -50 315 -83 850 -223 140 -37 419 -110
620 -162 201 -52 426 -111 500 -131 74 -19 200 -53 280 -74 235 -62 400 -102
404 -98 2 2 17 58 33 124 17 66 78 305 136 530 58 226 135 525 171 665 35 140
227 890 426 1665 198 776 395 1543 436 1705 42 162 100 390 130 505 30 116 54
217 54 226 0 12 -89 38 -402 119 -222 56 -459 118 -528 136 -69 18 -370 96
-670 173 -300 77 -687 176 -860 221 -658 170 -1338 345 -1980 510 -790 204
-971 250 -986 250 -6 0 -45 -136 -87 -302z m2171 -2559 c240 -62 474 -121 520
-132 53 -14 82 -26 82 -35 0 -8 -59 -233 -131 -500 -73 -268 -134 -497 -137
-509 -2 -13 -9 -23 -16 -23 -6 -1 -244 57 -528 127 -404 99 -518 131 -518 143
0 8 41 173 91 365 50 193 109 423 131 513 28 112 45 162 55 162 8 0 210 -50
451 -111z"/>
</g>
</svg>
